{"title":"Hollow Man 2000 720p Esub BluRay Dual Audio English Hindi GOPI S","magnet":"magnet:?xt=urn:btih:668e803cf22a1b0ec3c25ca4a2f7db9c3f3c9908&dn=Hollow+Man+2000+720p+Esub+BluRay+Dual+Audio+English+Hindi+GOPI+S&tr=udp%3A%2F%2Ftracker.leechers-paradise.org%3A6969&tr=udp%3A%2F%2Fzer0day.ch%3A1337&tr=udp%3A%2F%2Fopen.demonii.com%3A1337&tr=udp%3A%2F%2Ftracker.coppersurfer.tk%3A6969&tr=udp%3A%2F%2Fexodus.desync.com%3A6969","uploader":"jatt13","categoryP":"video","categoryS":"hd___movies","size":"860155951","seeders":"1","leechers":"65","description":"[center][img]http://i.imgur.com/qtBLGSo.png[/img]\r\n[img]http://i.imgur.com/cy8WhoH.png[/img]\r\nVideo\r\nID                             : 1\r\nFormat                         : AVC\r\nCodec ID                       : V_MPEG4/ISO/AVC\r\nDuration                       : 1 h 53 min\r\nBit rate                       : 876 kb/s\r\nWidth                          : 1 280 pixels\r\nHeight                         : 576 pixels\r\nDisplay aspect ratio           : 2.222\r\nFrame rate mode                : Constant\r\nFrame rate                     : 25.000 FPS\r\nStream size                    : 706 MiB (86%)\r\nWriting library                : x264 core 129\r\n\r\nAudio #1\r\nID                             : 2\r\nFormat                         : MPEG Audio\r\nCodec ID/Hint                  : MP2\r\nDuration                       : 1 h 46 min\r\nBit rate mode                  : Constant\r\nBit rate                       : 112 kb/s\r\nChannel(s)                     : 2 channels\r\nSampling rate                  : 48.0 kHz\r\nFrame rate                     : 39.748 FPS (1208 spf)\r\nStream size                    : 81.5 MiB (10%)\r\nLanguage                       : Hindi\r\n\r\nAudio #2\r\nID                             : 3\r\nFormat                         : AAC\r\nDuration                       : 1 h 53 min\r\nBit rate                       : 38.0 kb/s\r\nChannel(s)                     : 2 channels\r\nChannel positions              : Front: L R\r\nSampling rate                  : 11.025 kHz\r\nFrame rate                     : 10.767 FPS (1024 spf)\r\nStream size                    : 30.8 MiB (4%)\r\nLanguage                       : English\r\n\r\nText\r\nDuration                       : 1 h 48 min\r\nBit rate                       : 42 b/s\r\nCount of elements              : 1070\r\nStream size                    : 33.6 KiB (0%)\r\nLanguage                       : English\r\n[img]http://i.imgur.com/ikXHSDF.png[/img]\r\n[img]http://i.imgur.com/uGVmWGd.jpg[/img]\r\n[img]http://i.imgur.com/aMmhIuA.jpg[/img]\r\n[img]http://i.imgur.com/0PiMSpg.jpg[/img][/center]","last_updated":"2017-06-15T12:02:49.559Z","parsed":{"xt":"urn:btih:668e803cf22a1b0ec3c25ca4a2f7db9c3f3c9908","dn":"Hollow Man 2000 720p Esub BluRay Dual Audio English Hindi GOPI S","tr":["udp://exodus.desync.com:6969","udp://open.demonii.com:1337","udp://tracker.coppersurfer.tk:6969","udp://tracker.leechers-paradise.org:6969","udp://zer0day.ch:1337"],"infoHash":"668e803cf22a1b0ec3c25ca4a2f7db9c3f3c9908","infoHashBuffer":{"type":"Buffer","data":[102,142,128,60,242,42,27,14,195,194,92,164,162,247,219,156,63,60,153,8]},"name":"Hollow Man 2000 720p Esub BluRay Dual Audio English Hindi GOPI S","announce":["udp://exodus.desync.com:6969","udp://open.demonii.com:1337","udp://tracker.coppersurfer.tk:6969","udp://tracker.leechers-paradise.org:6969","udp://zer0day.ch:1337"],"urlList":[]}}